<svg xmlns="http://www.w3.org/2000/svg" xmlns:xlink="http://www.w3.org/1999/xlink" viewBox="40 169 295 34" preserveAspectRatio="xMidYMid meet" version="1.0"><defs><g/></defs><g fill="#fff4e4" fill-opacity="1"><g transform="translate(42.261717, 200.249987)"><g><path d="M 18.6875 -15.953125 C 20.175781 -15.953125 21.523438 -15.582031 22.734375 -14.84375 C 23.953125 -14.101562 24.914062 -13.128906 25.625 -11.921875 C 26.320312 -10.722656 26.671875 -9.410156 26.671875 -7.984375 C 26.671875 -6.554688 26.320312 -5.238281 25.625 -4.03125 C 24.914062 -2.820312 23.953125 -1.847656 22.734375 -1.109375 C 21.523438 -0.367188 20.175781 0 18.6875 0 L 10 0 C 8.507812 0 7.148438 -0.367188 5.921875 -1.109375 C 4.691406 -1.847656 3.738281 -2.820312 3.0625 -4.03125 C 2.394531 -5.175781 2.046875 -6.421875 2.015625 -7.765625 L 6.046875 -7.765625 C 6.097656 -6.734375 6.503906 -5.851562 7.265625 -5.125 C 8.023438 -4.394531 8.9375 -4.03125 10 -4.03125 L 18.6875 -4.03125 C 19.78125 -4.03125 20.710938 -4.414062 21.484375 -5.1875 C 22.253906 -5.957031 22.640625 -6.890625 22.640625 -7.984375 C 22.640625 -9.078125 22.253906 -10.003906 21.484375 -10.765625 C 20.710938 -11.535156 19.78125 -11.921875 18.6875 -11.921875 L 10 -11.921875 C 8.875 -11.921875 7.8125 -12.140625 6.8125 -12.578125 C 5.820312 -13.015625 4.960938 -13.609375 4.234375 -14.359375 C 3.785156 -14.835938 3.394531 -15.367188 3.0625 -15.953125 C 2.363281 -17.191406 2.015625 -18.507812 2.015625 -19.90625 C 2.015625 -21.332031 2.363281 -22.660156 3.0625 -23.890625 C 3.738281 -25.097656 4.691406 -26.070312 5.921875 -26.8125 C 7.148438 -27.5625 8.507812 -27.9375 10 -27.9375 L 18.484375 -27.9375 C 18.535156 -27.9375 18.601562 -27.9375 18.6875 -27.9375 C 18.75 -27.9375 18.820312 -27.9375 18.90625 -27.9375 C 20.332031 -27.875 21.640625 -27.476562 22.828125 -26.75 C 24.015625 -26.019531 24.945312 -25.066406 25.625 -23.890625 C 26.289062 -22.722656 26.640625 -21.46875 26.671875 -20.125 L 22.640625 -20.125 C 22.578125 -21.15625 22.179688 -22.023438 21.453125 -22.734375 C 20.734375 -23.453125 19.851562 -23.835938 18.8125 -23.890625 L 10 -23.890625 C 8.90625 -23.890625 7.960938 -23.5 7.171875 -22.71875 C 6.390625 -21.9375 6 -21 6 -19.90625 C 6 -18.894531 6.347656 -18.007812 7.046875 -17.25 C 7.753906 -16.5 8.597656 -16.082031 9.578125 -16 C 9.742188 -16 9.882812 -16 10 -16 C 10.21875 -16 10.453125 -15.984375 10.703125 -15.953125 Z M 18.6875 -15.953125 "/></g></g><g transform="translate(70.947715, 200.249987)"><g><path d="M 16 -4.03125 C 17.988281 -4.03125 19.78125 -4.554688 21.375 -5.609375 C 22.96875 -6.660156 24.171875 -8.007812 24.984375 -9.65625 L 29.3125 -9.65625 C 28.695312 -7.78125 27.738281 -6.113281 26.4375 -4.65625 C 25.132812 -3.207031 23.585938 -2.066406 21.796875 -1.234375 C 20.003906 -0.410156 18.070312 0 16 0 C 13.644531 0 11.476562 -0.523438 9.5 -1.578125 C 7.53125 -2.628906 5.894531 -4.054688 4.59375 -5.859375 C 3.289062 -7.660156 2.472656 -9.679688 2.140625 -11.921875 C 2.054688 -12.628906 2.015625 -13.316406 2.015625 -13.984375 C 2.015625 -14.660156 2.054688 -15.316406 2.140625 -15.953125 C 2.453125 -18.222656 3.257812 -20.269531 4.5625 -22.09375 C 5.863281 -23.914062 7.503906 -25.359375 9.484375 -26.421875 C 11.472656 -27.484375 13.644531 -28.015625 16 -28.015625 C 18.125 -28.015625 20.101562 -27.570312 21.9375 -26.6875 C 23.78125 -25.8125 25.351562 -24.613281 26.65625 -23.09375 C 27.957031 -21.582031 28.882812 -19.847656 29.4375 -17.890625 L 25.203125 -17.890625 C 24.421875 -19.679688 23.207031 -21.144531 21.5625 -22.28125 C 19.925781 -23.414062 18.070312 -23.984375 16 -23.984375 C 14.375 -23.984375 12.878906 -23.628906 11.515625 -22.921875 C 10.160156 -22.222656 9.015625 -21.269531 8.078125 -20.0625 C 7.140625 -18.863281 6.519531 -17.492188 6.21875 -15.953125 C 6.070312 -15.316406 6 -14.660156 6 -13.984375 C 6 -13.316406 6.070312 -12.628906 6.21875 -11.921875 C 6.550781 -10.441406 7.1875 -9.097656 8.125 -7.890625 C 9.0625 -6.691406 10.207031 -5.75 11.5625 -5.0625 C 12.925781 -4.375 14.40625 -4.03125 16 -4.03125 Z M 16 -4.03125 "/></g></g></g><g fill="#fff4e4" fill-opacity="1"><g transform="translate(102.405713, 200.249987)"><g><path d="M 19.1875 -14.40625 L 27.96875 0 L 23.21875 0 L 15.203125 -13.1875 L 15 -13.5625 C 14.9375 -13.539062 14.921875 -13.53125 14.953125 -13.53125 C 14.835938 -13.5 14.753906 -13.484375 14.703125 -13.484375 C 14.671875 -13.453125 14.65625 -13.4375 14.65625 -13.4375 C 14.570312 -13.4375 14.460938 -13.421875 14.328125 -13.390625 C 14.097656 -13.335938 13.859375 -13.285156 13.609375 -13.234375 C 13.523438 -13.234375 13.453125 -13.21875 13.390625 -13.1875 C 13.390625 -13.1875 13.363281 -13.1875 13.3125 -13.1875 C 13.175781 -13.15625 13.078125 -13.140625 13.015625 -13.140625 C 12.960938 -13.140625 12.921875 -13.140625 12.890625 -13.140625 C 12.804688 -13.117188 12.722656 -13.109375 12.640625 -13.109375 C 12.503906 -13.078125 12.378906 -13.0625 12.265625 -13.0625 C 12.148438 -13.0625 12.035156 -13.0625 11.921875 -13.0625 C 11.898438 -13.0625 11.890625 -13.0625 11.890625 -13.0625 C 11.828125 -13.0625 11.742188 -13.046875 11.640625 -13.015625 C 11.609375 -13.015625 11.582031 -13.015625 11.5625 -13.015625 C 11.550781 -13.015625 11.535156 -13.015625 11.515625 -13.015625 C 11.367188 -13.015625 11.269531 -13.015625 11.21875 -13.015625 L 6 -13.015625 L 6 0 L 2.015625 0 L 2.015625 -27.96875 L 25.15625 -27.96875 C 25.15625 -27.632812 25.15625 -27.3125 25.15625 -27 C 25.15625 -25.96875 25.046875 -24.945312 24.828125 -23.9375 C 24.546875 -22.625 24.070312 -21.378906 23.40625 -20.203125 C 22.75 -19.023438 21.945312 -17.972656 21 -17.046875 C 20.832031 -16.878906 20.664062 -16.710938 20.5 -16.546875 C 20.414062 -16.460938 20.34375 -16.40625 20.28125 -16.375 C 20.226562 -16.320312 20.144531 -16.253906 20.03125 -16.171875 C 20 -16.140625 19.941406 -16.097656 19.859375 -16.046875 C 19.835938 -16.015625 19.796875 -15.972656 19.734375 -15.921875 C 19.566406 -15.804688 19.398438 -15.691406 19.234375 -15.578125 C 19.203125 -15.554688 19.132812 -15.5 19.03125 -15.40625 C 18.945312 -15.351562 18.875 -15.3125 18.8125 -15.28125 C 18.789062 -15.257812 18.78125 -15.25 18.78125 -15.25 C 18.800781 -15.269531 18.769531 -15.253906 18.6875 -15.203125 Z M 15.15625 -17.84375 C 16.28125 -18.351562 17.289062 -19.039062 18.1875 -19.90625 C 19.363281 -21.050781 20.1875 -22.394531 20.65625 -23.9375 L 6 -23.9375 L 6 -17.046875 L 11.21875 -17.046875 C 12.582031 -17.046875 13.894531 -17.3125 15.15625 -17.84375 Z M 15.15625 -17.84375 "/></g></g></g><g fill="#fff4e4" fill-opacity="1"><g transform="translate(132.393707, 200.249987)"><g><path d="M 6.515625 -12.9375 L 6.515625 -4.03125 L 27.125 -4.03125 L 27.125 0 L 2.484375 0 L 2.484375 -21.875 L 6.515625 -21.875 L 6.515625 -16.96875 L 24.4375 -16.96875 L 24.4375 -12.9375 Z M 2.484375 -27.890625 L 27.125 -27.890625 L 27.125 -23.859375 L 2.484375 -23.859375 Z M 2.484375 -27.890625 "/></g></g></g><g fill="#fff4e4" fill-opacity="1"><g transform="translate(161.583704, 200.249987)"><g><path d="M 6.515625 -12.9375 L 6.515625 -4.03125 L 27.125 -4.03125 L 27.125 0 L 2.484375 0 L 2.484375 -21.875 L 6.515625 -21.875 L 6.515625 -16.96875 L 24.4375 -16.96875 L 24.4375 -12.9375 Z M 2.484375 -27.890625 L 27.125 -27.890625 L 27.125 -23.859375 L 2.484375 -23.859375 Z M 2.484375 -27.890625 "/></g></g></g><g fill="#fff4e4" fill-opacity="1"><g transform="translate(190.7737, 200.249987)"><g><path d="M 2.015625 0 L 2.015625 -19.453125 L 6 -15.40625 L 6 0 Z M 20.125 -27.9375 L 24.15625 -27.9375 L 24.15625 -0.125 L 20.125 -4.15625 L 6 -18.265625 L 2.015625 -22.265625 L 2.015625 -27.96875 L 20.125 -9.828125 Z M 20.125 -27.9375 "/></g></g></g><g fill="#960000" fill-opacity="1"><g transform="translate(216.941393, 200.249987)"><g><path d="M 18.6875 -15.953125 C 20.175781 -15.953125 21.523438 -15.582031 22.734375 -14.84375 C 23.953125 -14.101562 24.914062 -13.128906 25.625 -11.921875 C 26.320312 -10.722656 26.671875 -9.410156 26.671875 -7.984375 C 26.671875 -6.554688 26.320312 -5.238281 25.625 -4.03125 C 24.914062 -2.820312 23.953125 -1.847656 22.734375 -1.109375 C 21.523438 -0.367188 20.175781 0 18.6875 0 L 10 0 C 8.507812 0 7.148438 -0.367188 5.921875 -1.109375 C 4.691406 -1.847656 3.738281 -2.820312 3.0625 -4.03125 C 2.394531 -5.175781 2.046875 -6.421875 2.015625 -7.765625 L 6.046875 -7.765625 C 6.097656 -6.734375 6.503906 -5.851562 7.265625 -5.125 C 8.023438 -4.394531 8.9375 -4.03125 10 -4.03125 L 18.6875 -4.03125 C 19.78125 -4.03125 20.710938 -4.414062 21.484375 -5.1875 C 22.253906 -5.957031 22.640625 -6.890625 22.640625 -7.984375 C 22.640625 -9.078125 22.253906 -10.003906 21.484375 -10.765625 C 20.710938 -11.535156 19.78125 -11.921875 18.6875 -11.921875 L 10 -11.921875 C 8.875 -11.921875 7.8125 -12.140625 6.8125 -12.578125 C 5.820312 -13.015625 4.960938 -13.609375 4.234375 -14.359375 C 3.785156 -14.835938 3.394531 -15.367188 3.0625 -15.953125 C 2.363281 -17.191406 2.015625 -18.507812 2.015625 -19.90625 C 2.015625 -21.332031 2.363281 -22.660156 3.0625 -23.890625 C 3.738281 -25.097656 4.691406 -26.070312 5.921875 -26.8125 C 7.148438 -27.5625 8.507812 -27.9375 10 -27.9375 L 18.484375 -27.9375 C 18.535156 -27.9375 18.601562 -27.9375 18.6875 -27.9375 C 18.75 -27.9375 18.820312 -27.9375 18.90625 -27.9375 C 20.332031 -27.875 21.640625 -27.476562 22.828125 -26.75 C 24.015625 -26.019531 24.945312 -25.066406 25.625 -23.890625 C 26.289062 -22.722656 26.640625 -21.46875 26.671875 -20.125 L 22.640625 -20.125 C 22.578125 -21.15625 22.179688 -22.023438 21.453125 -22.734375 C 20.734375 -23.453125 19.851562 -23.835938 18.8125 -23.890625 L 10 -23.890625 C 8.90625 -23.890625 7.960938 -23.5 7.171875 -22.71875 C 6.390625 -21.9375 6 -21 6 -19.90625 C 6 -18.894531 6.347656 -18.007812 7.046875 -17.25 C 7.753906 -16.5 8.597656 -16.082031 9.578125 -16 C 9.742188 -16 9.882812 -16 10 -16 C 10.21875 -16 10.453125 -15.984375 10.703125 -15.953125 Z M 18.6875 -15.953125 "/></g></g></g><g fill="#960000" fill-opacity="1"><g transform="translate(245.627391, 200.249987)"><g><path d="M 22.515625 -27.96875 L 27.46875 -27.96875 L 17.5625 -14.40625 L 17.265625 -13.984375 L 17.21875 -13.984375 L 16.84375 -13.4375 L 16.765625 -13.3125 L 16.765625 0 L 12.71875 0 L 12.71875 -13.3125 L 12.640625 -13.4375 L 12.265625 -13.984375 L 12.21875 -13.984375 L 11.921875 -14.40625 L 2.015625 -27.96875 L 6.96875 -27.96875 L 14.734375 -17.390625 Z M 22.515625 -27.96875 "/></g></g></g><g fill="#960000" fill-opacity="1"><g transform="translate(275.111389, 200.249987)"><g><path d="M 2.015625 0 L 2.015625 -19.453125 L 6 -15.40625 L 6 0 Z M 20.125 -27.9375 L 24.15625 -27.9375 L 24.15625 -0.125 L 20.125 -4.15625 L 6 -18.265625 L 2.015625 -22.265625 L 2.015625 -27.96875 L 20.125 -9.828125 Z M 20.125 -27.9375 "/></g></g></g><g fill="#960000" fill-opacity="1"><g transform="translate(301.277387, 200.249987)"><g><path d="M 16 -4.03125 C 17.988281 -4.03125 19.78125 -4.554688 21.375 -5.609375 C 22.96875 -6.660156 24.171875 -8.007812 24.984375 -9.65625 L 29.3125 -9.65625 C 28.695312 -7.78125 27.738281 -6.113281 26.4375 -4.65625 C 25.132812 -3.207031 23.585938 -2.066406 21.796875 -1.234375 C 20.003906 -0.410156 18.070312 0 16 0 C 13.644531 0 11.476562 -0.523438 9.5 -1.578125 C 7.53125 -2.628906 5.894531 -4.054688 4.59375 -5.859375 C 3.289062 -7.660156 2.472656 -9.679688 2.140625 -11.921875 C 2.054688 -12.628906 2.015625 -13.316406 2.015625 -13.984375 C 2.015625 -14.660156 2.054688 -15.316406 2.140625 -15.953125 C 2.453125 -18.222656 3.257812 -20.269531 4.5625 -22.09375 C 5.863281 -23.914062 7.503906 -25.359375 9.484375 -26.421875 C 11.472656 -27.484375 13.644531 -28.015625 16 -28.015625 C 18.125 -28.015625 20.101562 -27.570312 21.9375 -26.6875 C 23.78125 -25.8125 25.351562 -24.613281 26.65625 -23.09375 C 27.957031 -21.582031 28.882812 -19.847656 29.4375 -17.890625 L 25.203125 -17.890625 C 24.421875 -19.679688 23.207031 -21.144531 21.5625 -22.28125 C 19.925781 -23.414062 18.070312 -23.984375 16 -23.984375 C 14.375 -23.984375 12.878906 -23.628906 11.515625 -22.921875 C 10.160156 -22.222656 9.015625 -21.269531 8.078125 -20.0625 C 7.140625 -18.863281 6.519531 -17.492188 6.21875 -15.953125 C 6.070312 -15.316406 6 -14.660156 6 -13.984375 C 6 -13.316406 6.070312 -12.628906 6.21875 -11.921875 C 6.550781 -10.441406 7.1875 -9.097656 8.125 -7.890625 C 9.0625 -6.691406 10.207031 -5.75 11.5625 -5.0625 C 12.925781 -4.375 14.40625 -4.03125 16 -4.03125 Z M 16 -4.03125 "/></g></g></g></svg>
